<svg version="1.1" viewBox="0.0 0.0 370.7690288713911 286.15485564304464" fill="none" stroke="none" stroke-linecap="square" stroke-miterlimit="10" xmlns:xlink="http://www.w3.org/1999/xlink" xmlns="http://www.w3.org/2000/svg"><clipPath id="p.0"><path d="m0 0l370.76904 0l0 286.15485l-370.76904 0l0 -286.15485z" clip-rule="nonzero"/></clipPath><g clip-path="url(#p.0)"><path fill="#000000" fill-opacity="0.0" d="m0 0l370.76904 0l0 286.15485l-370.76904 0z" fill-rule="evenodd"/><g filter="url(#shadowFilter-p.1)"><use xlink:href="#p.1" transform="matrix(1.0 0.0 0.0 1.0 0.0 1.0)"/></g><defs><filter id="shadowFilter-p.1" filterUnits="userSpaceOnUse"><feGaussianBlur in="SourceAlpha" stdDeviation="1.5" result="blur"/><feComponentTransfer in="blur" color-interpolation-filters="sRGB"><feFuncR type="linear" slope="0" intercept="0.0"/><feFuncG type="linear" slope="0" intercept="0.0"/><feFuncB type="linear" slope="0" intercept="0.0"/><feFuncA type="linear" slope="0.5" intercept="0"/></feComponentTransfer></filter></defs><g id="p.1"><path fill="#7ed957" d="m124.3832 1.8792651l120.91338 0l0 37.259842l-120.91338 0z" fill-rule="evenodd"/><path stroke="#6aa84f" stroke-width="1.0" stroke-linejoin="round" stroke-linecap="butt" d="m124.3832 1.8792651l120.91338 0l0 37.259842l-120.91338 0z" fill-rule="evenodd"/><path fill="#ffffff" d="m191.50967 27.429184l-2.9375 0l-1.171875 -3.03125l-5.328125 0l-1.109375 3.03125l-2.859375 0l5.203125 -13.359375l2.84375 0l5.359375 13.359375zm-4.96875 -5.28125l-1.84375 -4.953125l-1.796875 4.953125l3.640625 0z" fill-rule="nonzero"/></g><g filter="url(#shadowFilter-p.2)"><use xlink:href="#p.2" transform="matrix(1.0 0.0 0.0 1.0 0.0 1.0)"/></g><defs><filter id="shadowFilter-p.2" filterUnits="userSpaceOnUse"><feGaussianBlur in="SourceAlpha" stdDeviation="1.5" result="blur"/><feComponentTransfer in="blur" color-interpolation-filters="sRGB"><feFuncR type="linear" slope="0" intercept="0.0"/><feFuncG type="linear" slope="0" intercept="0.0"/><feFuncB type="linear" slope="0" intercept="0.0"/><feFuncA type="linear" slope="0.5" intercept="0"/></feComponentTransfer></filter></defs><g id="p.2"><path fill="#ff5757" d="m124.3832 39.139107l120.91338 0l0 37.259842l-120.91338 0z" fill-rule="evenodd"/><path stroke="#cc0000" stroke-width="1.0" stroke-linejoin="round" stroke-linecap="butt" d="m124.3832 39.139107l120.91338 0l0 37.259842l-120.91338 0z" fill-rule="evenodd"/></g><g filter="url(#shadowFilter-p.3)"><use xlink:href="#p.3" transform="matrix(1.0 0.0 0.0 1.0 0.0 1.0)"/></g><defs><filter id="shadowFilter-p.3" filterUnits="userSpaceOnUse"><feGaussianBlur in="SourceAlpha" stdDeviation="1.5" result="blur"/><feComponentTransfer in="blur" color-interpolation-filters="sRGB"><feFuncR type="linear" slope="0" intercept="0.0"/><feFuncG type="linear" slope="0" intercept="0.0"/><feFuncB type="linear" slope="0" intercept="0.0"/><feFuncA type="linear" slope="0.5" intercept="0"/></feComponentTransfer></filter></defs><g id="p.3"><path fill="#ffffff" d="m3.4698162 179.3727l120.91338 0l0 37.259857l-120.91338 0z" fill-rule="evenodd"/><path stroke="#999999" stroke-width="1.0" stroke-linejoin="round" stroke-linecap="butt" d="m3.4698162 179.3727l120.91338 0l0 37.259857l-120.91338 0z" fill-rule="evenodd"/><path fill="#666666" d="m58.54941 191.56325l5.34375 0q1.5937462 0 2.3593712 0.140625q0.78125 0.125 1.390625 0.546875q0.625 0.421875 1.03125 1.125q0.40625 0.6875 0.40625 1.546875q0 0.9375 -0.5 1.734375q-0.5 0.78125 -1.375 1.171875q1.21875 0.359375 1.875 1.21875q0.65625 0.84375 0.65625 2.0q0 0.921875 -0.421875 1.78125q-0.421875 0.859375 -1.15625 1.375q-0.734375 0.515625 -1.796875 0.625q-0.6875 0.078125 -3.2656212 0.09375l-4.546875 0l0 -13.359375zm2.703125 2.234375l0 3.078125l1.765625 0q1.5781212 0 1.9531212 -0.046875q0.703125 -0.078125 1.09375 -0.46875q0.40625 -0.40625 0.40625 -1.046875q0 -0.625 -0.34375 -1.0q-0.34375 -0.390625 -1.015625 -0.484375q-0.40625 -0.03125 -2.3124962 -0.03125l-1.546875 0zm0 5.296875l0 3.578125l2.5 0q1.4531212 0 1.8437462 -0.078125q0.609375 -0.109375 0.984375 -0.53125q0.375 -0.421875 0.375 -1.140625q0 -0.59375 -0.296875 -1.015625q-0.28125 -0.421875 -0.84375 -0.609375q-0.546875 -0.203125 -2.3906212 -0.203125l-2.171875 0z" fill-rule="nonzero"/></g><g filter="url(#shadowFilter-p.4)"><use xlink:href="#p.4" transform="matrix(1.0 0.0 0.0 1.0 0.0 1.0)"/></g><defs><filter id="shadowFilter-p.4" filterUnits="userSpaceOnUse"><feGaussianBlur in="SourceAlpha" stdDeviation="1.5" result="blur"/><feComponentTransfer in="blur" color-interpolation-filters="sRGB"><feFuncR type="linear" slope="0" intercept="0.0"/><feFuncG type="linear" slope="0" intercept="0.0"/><feFuncB type="linear" slope="0" intercept="0.0"/><feFuncA type="linear" slope="0.5" intercept="0"/></feComponentTransfer></filter></defs><g id="p.4"><path fill="#ffffff" d="m3.4698162 216.63255l120.91338 0l0 37.259842l-120.91338 0z" fill-rule="evenodd"/><path stroke="#999999" stroke-width="1.0" stroke-linejoin="round" stroke-linecap="butt" d="m3.4698162 216.63255l120.91338 0l0 37.259842l-120.91338 0z" fill-rule="evenodd"/></g><g filter="url(#shadowFilter-p.5)"><use xlink:href="#p.5" transform="matrix(1.0 0.0 0.0 1.0 0.0 1.0)"/></g><defs><filter id="shadowFilter-p.5" filterUnits="userSpaceOnUse"><feGaussianBlur in="SourceAlpha" stdDeviation="1.5" result="blur"/><feComponentTransfer in="blur" color-interpolation-filters="sRGB"><feFuncR type="linear" slope="0" intercept="0.0"/><feFuncG type="linear" slope="0" intercept="0.0"/><feFuncB type="linear" slope="0" intercept="0.0"/><feFuncA type="linear" slope="0.5" intercept="0"/></feComponentTransfer></filter></defs><g id="p.5"><path fill="#ffffff" d="m245.29659 179.49738l120.913376 0l0 37.259842l-120.913376 0z" fill-rule="evenodd"/><path stroke="#999999" stroke-width="1.0" stroke-linejoin="round" stroke-linecap="butt" d="m245.29659 179.49738l120.913376 0l0 37.259842l-120.913376 0z" fill-rule="evenodd"/><path fill="#666666" d="m308.92307 200.14104l2.609375 0.828125q-0.59375 2.1875 -2.0 3.25q-1.390625 1.0625 -3.546875 1.0625q-2.65625 0 -4.375 -1.8125q-1.703125 -1.828125 -1.703125 -4.984375q0 -3.328125 1.71875 -5.171875q1.71875 -1.84375 4.515625 -1.84375q2.453125 0 3.984375 1.4375q0.921875 0.859375 1.375 2.46875l-2.671875 0.640625q-0.234375 -1.046875 -0.984375 -1.640625q-0.75 -0.609375 -1.828125 -0.609375q-1.484375 0 -2.421875 1.078125q-0.921875 1.0625 -0.921875 3.4375q0 2.53125 0.90625 3.609375q0.921875 1.078125 2.375 1.078125q1.078125 0 1.84375 -0.671875q0.78125 -0.6875 1.125 -2.15625z" fill-rule="nonzero"/></g><g filter="url(#shadowFilter-p.6)"><use xlink:href="#p.6" transform="matrix(1.0 0.0 0.0 1.0 0.0 1.0)"/></g><defs><filter id="shadowFilter-p.6" filterUnits="userSpaceOnUse"><feGaussianBlur in="SourceAlpha" stdDeviation="1.5" result="blur"/><feComponentTransfer in="blur" color-interpolation-filters="sRGB"><feFuncR type="linear" slope="0" intercept="0.0"/><feFuncG type="linear" slope="0" intercept="0.0"/><feFuncB type="linear" slope="0" intercept="0.0"/><feFuncA type="linear" slope="0.5" intercept="0"/></feComponentTransfer></filter></defs><g id="p.6"><path fill="#ffffff" d="m245.29659 216.75722l120.913376 0l0 37.259842l-120.913376 0z" fill-rule="evenodd"/><path stroke="#999999" stroke-width="1.0" stroke-linejoin="round" stroke-linecap="butt" d="m245.29659 216.75722l120.913376 0l0 37.259842l-120.913376 0z" fill-rule="evenodd"/></g><g filter="url(#shadowFilter-p.7)"><use xlink:href="#p.7" transform="matrix(1.0 0.0 0.0 1.0 0.0 1.0)"/></g><defs><filter id="shadowFilter-p.7" filterUnits="userSpaceOnUse"><feGaussianBlur in="SourceAlpha" stdDeviation="1.5" result="blur"/><feComponentTransfer in="blur" color-interpolation-filters="sRGB"><feFuncR type="linear" slope="0" intercept="0.0"/><feFuncG type="linear" slope="0" intercept="0.0"/><feFuncB type="linear" slope="0" intercept="0.0"/><feFuncA type="linear" slope="0.5" intercept="0"/></feComponentTransfer></filter></defs><g id="p.7"><path fill="#000000" fill-opacity="0.0" d="m184.83989 76.39895c0 25.77475 30.228348 38.663666 60.456696 51.54949c30.228348 12.885834 60.45671 25.76857 60.45671 51.537125" fill-rule="evenodd"/><path stroke="#ff5757" stroke-width="2.0" stroke-linejoin="round" stroke-linecap="butt" d="m184.83989 76.39895c0 25.77475 30.228348 38.663666 60.456696 51.54949c15.1141815 6.442917 30.228348 12.885056 41.56398 20.937546c5.667816 4.02623 10.390991 8.455063 13.697205 13.487869c0.8265686 1.258194 1.5645752 2.5541382 2.2066345 3.8909912c0.16049194 0.334198 0.31500244 0.67097473 0.46343994 1.0103455l0.18780518 0.44026184" fill-rule="evenodd"/><path fill="#ff5757" stroke="#ff5757" stroke-width="2.0" stroke-linecap="butt" d="m300.17548 168.35898l5.0082397 8.258789l1.4721069 -9.545837z" fill-rule="evenodd"/></g><g filter="url(#shadowFilter-p.8)"><use xlink:href="#p.8" transform="matrix(1.0 0.0 0.0 1.0 0.0 1.0)"/></g><defs><filter id="shadowFilter-p.8" filterUnits="userSpaceOnUse"><feGaussianBlur in="SourceAlpha" stdDeviation="1.5" result="blur"/><feComponentTransfer in="blur" color-interpolation-filters="sRGB"><feFuncR type="linear" slope="0" intercept="0.0"/><feFuncG type="linear" slope="0" intercept="0.0"/><feFuncB type="linear" slope="0" intercept="0.0"/><feFuncA type="linear" slope="0.5" intercept="0"/></feComponentTransfer></filter></defs><g id="p.8"><path fill="#000000" fill-opacity="0.0" d="m184.83989 76.39895c0 25.743248 -30.228348 38.616417 -60.456688 51.486496c-30.228348 12.870079 -60.45669 25.737068 -60.45669 51.47413" fill-rule="evenodd"/><path stroke="#ff5757" stroke-width="2.0" stroke-linejoin="round" stroke-linecap="butt" d="m184.83989 76.39895c0 25.743248 -30.228348 38.616417 -60.456688 51.486496c-15.114174 6.4350357 -30.228348 12.869316 -41.563972 20.91195c-5.667816 4.0213165 -10.390999 8.444733 -13.69722 13.4713745c-0.826561 1.2566681 -1.5645523 2.5510254 -2.2066116 3.8862457c-0.16051483 0.33380127 -0.31503296 0.67015076 -0.46343994 1.0091095l-0.18216705 0.4264679" fill-rule="evenodd"/><path fill="#ff5757" stroke="#ff5757" stroke-width="2.0" stroke-linecap="butt" d="m63.029926 166.94551l1.4675255 9.546555l5.0122147 -8.256393z" fill-rule="evenodd"/></g><g filter="url(#shadowFilter-p.9)"><use xlink:href="#p.9" transform="matrix(1.0 0.0 0.0 1.0 0.0 1.0)"/></g><defs><filter id="shadowFilter-p.9" filterUnits="userSpaceOnUse"><feGaussianBlur in="SourceAlpha" stdDeviation="1.5" result="blur"/><feComponentTransfer in="blur" color-interpolation-filters="sRGB"><feFuncR type="linear" slope="0" intercept="0.0"/><feFuncG type="linear" slope="0" intercept="0.0"/><feFuncB type="linear" slope="0" intercept="0.0"/><feFuncA type="linear" slope="0.5" intercept="0"/></feComponentTransfer></filter></defs><g id="p.9"><path fill="#000000" fill-opacity="0.0" d="m305.7533 254.01706c0 12.500153 -34.54669 30.332062 -60.45671 25.000336c-25.910004 -5.3317566 -43.18335 -33.827133 -60.456696 -62.32242c-17.27333 -28.4953 -34.546677 -56.990494 -60.456688 -62.32242c-25.910011 -5.3319244 -60.45669 12.49942 -60.45669 24.998825" fill-rule="evenodd"/><path stroke="#b7b7b7" stroke-width="2.0" stroke-linejoin="round" stroke-linecap="butt" d="m305.7533 254.01706c0 12.500153 -34.54669 30.332062 -60.45671 25.000336c-25.910004 -5.331726 -43.18335 -33.827133 -60.456696 -62.322433c-17.273346 -28.495285 -34.546677 -56.99048 -60.456688 -62.322403c-12.955009 -2.6659698 -28.069183 0.45889282 -39.944603 5.812668c-2.9688568 1.33844 -5.7352905 2.8161926 -8.214958 4.377594c-1.23983 0.7807007 -2.4079742 1.5823212 -3.4938812 2.3978882c-0.5429535 0.40777588 -1.0653534 0.8190613 -1.5658798 1.2329559c-0.25025177 0.2069397 -0.4950409 0.41453552 -0.7341995 0.6226959l-0.3122177 0.27534485" fill-rule="evenodd"/><path fill="#b7b7b7" stroke="#b7b7b7" stroke-width="2.0" stroke-linecap="butt" d="m67.287575 167.38739l-1.8526382 9.479355l7.5124054 -6.070755z" fill-rule="evenodd"/></g><g filter="url(#shadowFilter-p.10)"><use xlink:href="#p.10" transform="matrix(1.0 0.0 0.0 1.0 0.0 1.0)"/></g><defs><filter id="shadowFilter-p.10" filterUnits="userSpaceOnUse"><feGaussianBlur in="SourceAlpha" stdDeviation="1.5" result="blur"/><feComponentTransfer in="blur" color-interpolation-filters="sRGB"><feFuncR type="linear" slope="0" intercept="0.0"/><feFuncG type="linear" slope="0" intercept="0.0"/><feFuncB type="linear" slope="0" intercept="0.0"/><feFuncA type="linear" slope="0.5" intercept="0"/></feComponentTransfer></filter></defs><g id="p.10"><path fill="#000000" fill-opacity="0.0" d="m63.92651 253.8924c0 12.5 34.54668 30.313934 60.45669 25.0c25.910011 -5.3139343 43.183357 -33.755722 60.456688 -62.1976c17.273346 -28.44188 34.54669 -56.88385 60.456696 -62.1976c25.910019 -5.313736 60.45671 12.500748 60.45671 25.001495" fill-rule="evenodd"/><path stroke="#b7b7b7" stroke-width="2.0" stroke-linejoin="round" stroke-linecap="butt" d="m63.92651 253.8924c0 12.5 34.54668 30.313934 60.45669 25.0c25.910011 -5.3139343 43.183342 -33.755722 60.456688 -62.1976c17.273346 -28.44188 34.54669 -56.88385 60.456696 -62.197586c12.955002 -2.6568756 28.069199 0.4683075 39.944595 5.8202972c2.9688416 1.3379974 5.7352905 2.8151703 8.214966 4.3759766c1.2398376 0.78041077 2.4079895 1.5817108 3.4938965 2.3969727c0.54293823 0.40763855 1.0653381 0.8187561 1.5658569 1.2325134c0.25024414 0.2068634 0.49505615 0.4143982 0.7341919 0.6224823l0.3110962 0.27423096" fill-rule="evenodd"/><path fill="#b7b7b7" stroke="#b7b7b7" stroke-width="2.0" stroke-linecap="butt" d="m296.7315 170.9243l7.5130615 6.0699005l-1.8536987 -9.479141z" fill-rule="evenodd"/></g></g></svg>